<?xml version="1.0" encoding="utf-8"?>
<!-- Generator: Adobe Illustrator 18.0.0, SVG Export Plug-In . SVG Version: 6.00 Build 0)  -->
<svg version="1.1" id="Capa_1" xmlns="http://www.w3.org/2000/svg" xmlns:xlink="http://www.w3.org/1999/xlink" x="0px" y="0px"
	 viewBox="0 0 792 612" enable-background="new 0 0 792 612" xml:space="preserve">
<g>
	<g>
		<path fill="#092459" d="M589.9,0H129.3v549.7h460.5V0H589.9z M562.2,522c-25.1,0-380.1,0-405.2,0c0-25.6,0-468.8,0-494.3
			c25.2,0,380.1,0,405.2,0C562.2,53.2,562.2,496.4,562.2,522z"/>
		<rect x="205.3" y="89.3" fill="#092459" width="314.8" height="29"/>
		<rect x="205.3" y="180.8" fill="#092459" width="314.8" height="29"/>
		<polygon fill="#092459" points="608.9,62.3 608.9,90 634.9,90 634.9,584.2 229.7,584.2 229.7,565 202,565 202,612 662.7,612 
			662.7,62.3 		"/>
		<path fill="#092459" d="M217.1,396.1c5.5,0,10.5-1.5,15-3.8l39.5,32.3c-0.2,1.5-0.9,2.8-0.9,4.4c0,19.1,15.5,34.6,34.6,34.6
			s34.6-15.5,34.6-34.6c0-5.5-1.6-10.5-3.8-15.1c19-28.5,43.2-64.9,57.8-86.7c2.2,0.5,4.3,1.4,6.7,1.4c8.3,0,15.6-3.3,21.6-8.2
			c13,7.6,29.9,17.4,44.4,25.9c0,0.5-0.3,0.9-0.3,1.4c0,19.1,15.5,34.6,34.6,34.6s34.6-15.5,34.6-34.6s-15.5-34.6-34.6-34.6
			c-8.5,0-15.9,3.4-22,8.4l-44.2-25.8c0-0.6,0.3-1.1,0.3-1.7c0-19.1-15.5-34.5-34.5-34.5c-19.1,0-34.5,15.5-34.5,34.5
			c0,6.4,2.2,12.1,5.2,17.2c-18.1,27.3-41.8,62.8-56.7,85.1c-3-0.9-6-1.9-9.2-1.9c-7.1,0-13.4,2.7-18.9,6.4c-11-9-24.5-20.1-36.6-30
			c0.9-3,1.9-6,1.9-9.3c0-19.1-15.6-34.6-34.6-34.6c-19.1,0-34.6,15.4-34.6,34.6C182.5,380.6,197.9,396.1,217.1,396.1z"/>
	</g>
</g>
</svg>
